<?xml version="1.0" encoding="UTF-8"?>
<svg width="100px" height="100px" viewBox="0 0 100 100" version="1.1" xmlns="http://www.w3.org/2000/svg" xmlns:xlink="http://www.w3.org/1999/xlink">
    <!-- Generator: Sketch 61.1 (89650) - https://sketch.com -->
    <title>typescript</title>
    <desc>Created with Sketch.</desc>
    <defs>
        <rect id="path-1" x="0" y="0" width="100" height="100" rx="8"></rect>
    </defs>
    <g id="Page-1" stroke="none" stroke-width="1" fill="none" fill-rule="evenodd">
        <g id="typescript">
            <mask id="mask-2" fill="white">
                <use xlink:href="#path-1"></use>
            </mask>
            <use id="Mask" fill="#D8D8D8" xlink:href="#path-1"></use>
            <g mask="url(#mask-2)" fill-rule="nonzero">
                <polyline id="Path" fill="#007ACC" points="0 50 0 0 100 0 100 100 0 100"></polyline>
                <path d="M33,51.6323822 L33,54.8030685 L43.0443181,54.8030685 L43.0443181,83.5921218 L50.1719208,83.5921218 L50.1719208,54.8030685 L60.2162389,54.8030685 L60.2162389,51.6907384 C60.2162389,49.9400528 60.2162389,48.5200522 60.1389749,48.481148 C60.1389749,48.4227918 54.0158041,48.4033398 46.5791455,48.4033398 L33.057948,48.461696 L33.057948,51.6518343 L33,51.6323822 Z M78.1414835,48.3838877 C80.1117152,48.8507372 81.6183629,49.7455321 82.9704826,51.1655327 C83.6851745,51.9436153 84.7475543,53.3052597 84.8248183,53.6553968 C84.8248183,53.7721092 81.4831509,56.0480006 79.4549713,57.3123846 C79.3777073,57.3707408 79.0686514,57.0400558 78.7595954,56.5343021 C77.7551636,55.0948495 76.7314158,54.4723834 75.1281881,54.3556711 C72.8102685,54.2000546 71.2649888,55.4255345 71.2649888,57.4680012 C71.2649888,58.0904672 71.3808848,58.4406043 71.6126768,58.9463579 C72.1342087,60.0162214 73.1000085,60.6581395 76.0939879,61.9808798 C81.6183629,64.3734835 84.0135464,65.9491006 85.4622462,68.2055399 C87.1041059,70.7343081 87.4711098,74.702529 86.370098,77.6786946 C85.1338742,80.9271891 82.1205788,83.1252723 77.8131116,83.8449986 C76.4609919,84.0784234 73.3704324,84.0395192 71.9217327,83.7866424 C68.8311733,83.2030805 65.8758258,81.6469155 64.0601222,79.643353 C63.3454303,78.8652705 61.9739946,76.7838997 62.0512586,76.6477353 L62.7852664,76.1808858 L65.6826659,74.4885563 L67.8653735,73.2047201 L68.3675894,73.8855423 C69.0050173,74.8970496 70.434401,76.258694 71.2649888,76.7255435 C73.7760684,78.0288318 77.1370517,77.8537632 78.7982274,76.3365023 C79.5129193,75.6751321 79.8219752,74.9748579 79.8219752,74.0022547 C79.8219752,73.1074598 79.6867633,72.6989665 79.2424953,72.0181443 C78.6243834,71.1622535 77.3881597,70.4619792 73.9112803,68.9058142 C69.9128691,67.1940327 68.2130614,66.1047171 66.6291497,64.4318397 C65.7212979,63.4203324 64.89071,61.8447153 64.5043901,60.5414271 C64.2146501,59.4132075 64.1180702,56.6510145 64.3884941,55.5422469 C65.219082,51.6518343 68.1357974,48.9285455 72.3080526,48.150463 C73.6601724,47.8781341 76.8473118,47.9948465 78.1801155,48.3449836 L78.1414835,48.3838877 L78.1414835,48.3838877 Z" id="Shape" fill="#FFFFFF"></path>
            </g>
        </g>
    </g>
</svg>